<svg xmlns="http://www.w3.org/2000/svg" xmlns:xlink="http://www.w3.org/1999/xlink" width="496" zoomAndPan="magnify" viewBox="0 0 372 73.499998" height="98" preserveAspectRatio="xMidYMid meet" version="1.0"><defs><g/></defs><path fill="#17cf97" d="M 26.980469 25.238281 C 26.980469 31.792969 21.699219 37.105469 15.1875 37.105469 L 3.390625 37.105469 L 3.390625 25.238281 C 3.390625 18.6875 8.671875 13.375 15.1875 13.375 C 21.699219 13.375 26.980469 18.6875 26.980469 25.238281 Z M 26.980469 25.238281 " fill-opacity="1" fill-rule="nonzero"/><path fill="#17cf97" d="M 26.980469 48.972656 C 26.980469 42.417969 32.261719 37.105469 38.773438 37.105469 L 50.570312 37.105469 L 50.570312 48.972656 C 50.570312 55.527344 45.289062 60.839844 38.773438 60.839844 C 32.261719 60.839844 26.980469 55.527344 26.980469 48.972656 Z M 26.980469 48.972656 " fill-opacity="1" fill-rule="nonzero"/><path fill="#17cf97" d="M 3.390625 48.972656 C 3.390625 55.527344 8.671875 60.839844 15.1875 60.839844 L 26.980469 60.839844 L 26.980469 48.972656 C 26.980469 42.417969 21.699219 37.105469 15.1875 37.105469 C 8.671875 37.105469 3.390625 42.417969 3.390625 48.972656 Z M 3.390625 48.972656 " fill-opacity="1" fill-rule="nonzero"/><path fill="#17cf97" d="M 50.570312 25.238281 C 50.570312 18.6875 45.289062 13.375 38.773438 13.375 L 26.980469 13.375 L 26.980469 25.238281 C 26.980469 31.792969 32.261719 37.105469 38.773438 37.105469 C 45.289062 37.105469 50.570312 31.792969 50.570312 25.238281 Z M 50.570312 25.238281 " fill-opacity="1" fill-rule="nonzero"/><g fill="#000000" fill-opacity="1"><g transform="translate(59.441309, 52.570722)"><g><path d="M 15.015625 0.4375 C 12.441406 0.4375 10.210938 -0.148438 8.328125 -1.328125 C 6.441406 -2.503906 4.988281 -4.28125 3.96875 -6.65625 C 2.945312 -9.03125 2.4375 -11.96875 2.4375 -15.46875 C 2.4375 -18.988281 3.046875 -21.9375 4.265625 -24.3125 C 5.492188 -26.695312 7.195312 -28.46875 9.375 -29.625 C 11.5625 -30.789062 14.09375 -31.375 16.96875 -31.375 C 19.925781 -31.375 22.445312 -30.820312 24.53125 -29.71875 C 26.625 -28.625 28.09375 -26.988281 28.9375 -24.8125 L 24.484375 -22.109375 L 23.953125 -22.125 C 23.316406 -23.507812 22.421875 -24.519531 21.265625 -25.15625 C 20.117188 -25.789062 18.6875 -26.109375 16.96875 -26.109375 C 14.300781 -26.109375 12.257812 -25.265625 10.84375 -23.578125 C 9.4375 -21.890625 8.734375 -19.1875 8.734375 -15.46875 C 8.734375 -11.726562 9.390625 -9.007812 10.703125 -7.3125 C 12.023438 -5.625 13.976562 -4.78125 16.5625 -4.78125 C 18.789062 -4.78125 20.429688 -5.28125 21.484375 -6.28125 C 22.546875 -7.28125 23.078125 -8.773438 23.078125 -10.765625 L 23.078125 -12.09375 L 15.765625 -12.09375 L 15.765625 -17.078125 L 29.15625 -17.078125 L 29.15625 0 L 23.3125 0 L 23.3125 -4.140625 L 22.875 -4.203125 C 22.238281 -2.722656 21.273438 -1.578125 19.984375 -0.765625 C 18.691406 0.0351562 17.035156 0.4375 15.015625 0.4375 Z M 15.015625 0.4375 "/></g></g></g><g fill="#000000" fill-opacity="1"><g transform="translate(91.702474, 52.570722)"><g><path d="M 23.0625 -10.34375 L 8.0625 -10.34375 C 8.226562 -8.3125 8.804688 -6.832031 9.796875 -5.90625 C 10.785156 -4.988281 12.132812 -4.53125 13.84375 -4.53125 C 15.175781 -4.53125 16.257812 -4.78125 17.09375 -5.28125 C 17.925781 -5.78125 18.597656 -6.535156 19.109375 -7.546875 L 19.546875 -7.546875 L 23.4375 -5.0625 C 22.675781 -3.425781 21.523438 -2.097656 19.984375 -1.078125 C 18.453125 -0.0664062 16.40625 0.4375 13.84375 0.4375 C 11.425781 0.4375 9.335938 -0.0195312 7.578125 -0.9375 C 5.828125 -1.851562 4.472656 -3.21875 3.515625 -5.03125 C 2.566406 -6.84375 2.09375 -9.050781 2.09375 -11.65625 C 2.09375 -14.3125 2.59375 -16.546875 3.59375 -18.359375 C 4.59375 -20.179688 5.945312 -21.539062 7.65625 -22.4375 C 9.363281 -23.332031 11.28125 -23.78125 13.40625 -23.78125 C 16.707031 -23.78125 19.234375 -22.90625 20.984375 -21.15625 C 22.742188 -19.40625 23.625 -16.835938 23.625 -13.453125 C 23.625 -12.222656 23.582031 -11.269531 23.5 -10.59375 Z M 18.03125 -14.125 C 17.96875 -15.90625 17.550781 -17.203125 16.78125 -18.015625 C 16.019531 -18.828125 14.894531 -19.234375 13.40625 -19.234375 C 10.445312 -19.234375 8.707031 -17.53125 8.1875 -14.125 Z M 18.03125 -14.125 "/></g></g></g><g fill="#000000" fill-opacity="1"><g transform="translate(117.067156, 52.570722)"><g><path d="M 16.09375 -5.5625 L 17.625 -1.234375 C 16.988281 -0.703125 16.191406 -0.289062 15.234375 0 C 14.273438 0.289062 13.1875 0.4375 11.96875 0.4375 C 9.445312 0.4375 7.53125 -0.25 6.21875 -1.625 C 4.90625 -3 4.25 -4.992188 4.25 -7.609375 L 4.25 -18.703125 L 0.703125 -18.703125 L 0.703125 -23.359375 L 4.25 -23.359375 L 4.25 -27.90625 L 10.109375 -28.859375 L 10.109375 -23.359375 L 16.734375 -23.359375 L 16.734375 -18.703125 L 10.109375 -18.703125 L 10.109375 -8.046875 C 10.109375 -6.878906 10.347656 -6.03125 10.828125 -5.5 C 11.304688 -4.976562 12.003906 -4.71875 12.921875 -4.71875 C 13.960938 -4.71875 14.875 -5 15.65625 -5.5625 Z M 16.09375 -5.5625 "/></g></g></g><g fill="#000000" fill-opacity="1"><g transform="translate(135.196875, 52.570722)"><g><path d="M 15.015625 0.4375 C 12.441406 0.4375 10.210938 -0.148438 8.328125 -1.328125 C 6.441406 -2.503906 4.988281 -4.28125 3.96875 -6.65625 C 2.945312 -9.03125 2.4375 -11.96875 2.4375 -15.46875 C 2.4375 -18.988281 3.046875 -21.9375 4.265625 -24.3125 C 5.492188 -26.695312 7.195312 -28.46875 9.375 -29.625 C 11.5625 -30.789062 14.09375 -31.375 16.96875 -31.375 C 19.925781 -31.375 22.445312 -30.820312 24.53125 -29.71875 C 26.625 -28.625 28.09375 -26.988281 28.9375 -24.8125 L 24.484375 -22.109375 L 23.953125 -22.125 C 23.316406 -23.507812 22.421875 -24.519531 21.265625 -25.15625 C 20.117188 -25.789062 18.6875 -26.109375 16.96875 -26.109375 C 14.300781 -26.109375 12.257812 -25.265625 10.84375 -23.578125 C 9.4375 -21.890625 8.734375 -19.1875 8.734375 -15.46875 C 8.734375 -11.726562 9.390625 -9.007812 10.703125 -7.3125 C 12.023438 -5.625 13.976562 -4.78125 16.5625 -4.78125 C 18.789062 -4.78125 20.429688 -5.28125 21.484375 -6.28125 C 22.546875 -7.28125 23.078125 -8.773438 23.078125 -10.765625 L 23.078125 -12.09375 L 15.765625 -12.09375 L 15.765625 -17.078125 L 29.15625 -17.078125 L 29.15625 0 L 23.3125 0 L 23.3125 -4.140625 L 22.875 -4.203125 C 22.238281 -2.722656 21.273438 -1.578125 19.984375 -0.765625 C 18.691406 0.0351562 17.035156 0.4375 15.015625 0.4375 Z M 15.015625 0.4375 "/></g></g></g><g fill="#000000" fill-opacity="1"><g transform="translate(167.45804, 52.570722)"><g><path d="M 23.0625 -10.34375 L 8.0625 -10.34375 C 8.226562 -8.3125 8.804688 -6.832031 9.796875 -5.90625 C 10.785156 -4.988281 12.132812 -4.53125 13.84375 -4.53125 C 15.175781 -4.53125 16.257812 -4.78125 17.09375 -5.28125 C 17.925781 -5.78125 18.597656 -6.535156 19.109375 -7.546875 L 19.546875 -7.546875 L 23.4375 -5.0625 C 22.675781 -3.425781 21.523438 -2.097656 19.984375 -1.078125 C 18.453125 -0.0664062 16.40625 0.4375 13.84375 0.4375 C 11.425781 0.4375 9.335938 -0.0195312 7.578125 -0.9375 C 5.828125 -1.851562 4.472656 -3.21875 3.515625 -5.03125 C 2.566406 -6.84375 2.09375 -9.050781 2.09375 -11.65625 C 2.09375 -14.3125 2.59375 -16.546875 3.59375 -18.359375 C 4.59375 -20.179688 5.945312 -21.539062 7.65625 -22.4375 C 9.363281 -23.332031 11.28125 -23.78125 13.40625 -23.78125 C 16.707031 -23.78125 19.234375 -22.90625 20.984375 -21.15625 C 22.742188 -19.40625 23.625 -16.835938 23.625 -13.453125 C 23.625 -12.222656 23.582031 -11.269531 23.5 -10.59375 Z M 18.03125 -14.125 C 17.96875 -15.90625 17.550781 -17.203125 16.78125 -18.015625 C 16.019531 -18.828125 14.894531 -19.234375 13.40625 -19.234375 C 10.445312 -19.234375 8.707031 -17.53125 8.1875 -14.125 Z M 18.03125 -14.125 "/></g></g></g><g fill="#000000" fill-opacity="1"><g transform="translate(192.822722, 52.570722)"><g><path d="M 3.359375 0 L 3.359375 -23.328125 L 8.984375 -23.328125 L 8.984375 -19.90625 L 9.4375 -19.796875 C 10.882812 -22.453125 13.238281 -23.78125 16.5 -23.78125 C 19.195312 -23.78125 21.175781 -23.046875 22.4375 -21.578125 C 23.695312 -20.109375 24.328125 -17.972656 24.328125 -15.171875 L 24.328125 0 L 18.46875 0 L 18.46875 -14.453125 C 18.46875 -16.003906 18.15625 -17.117188 17.53125 -17.796875 C 16.914062 -18.484375 15.925781 -18.828125 14.5625 -18.828125 C 12.875 -18.828125 11.5625 -18.285156 10.625 -17.203125 C 9.6875 -16.117188 9.21875 -14.410156 9.21875 -12.078125 L 9.21875 0 Z M 3.359375 0 "/></g></g></g><g fill="#000000" fill-opacity="1"><g transform="translate(220.154799, 52.570722)"><g><path d="M 23.0625 -10.34375 L 8.0625 -10.34375 C 8.226562 -8.3125 8.804688 -6.832031 9.796875 -5.90625 C 10.785156 -4.988281 12.132812 -4.53125 13.84375 -4.53125 C 15.175781 -4.53125 16.257812 -4.78125 17.09375 -5.28125 C 17.925781 -5.78125 18.597656 -6.535156 19.109375 -7.546875 L 19.546875 -7.546875 L 23.4375 -5.0625 C 22.675781 -3.425781 21.523438 -2.097656 19.984375 -1.078125 C 18.453125 -0.0664062 16.40625 0.4375 13.84375 0.4375 C 11.425781 0.4375 9.335938 -0.0195312 7.578125 -0.9375 C 5.828125 -1.851562 4.472656 -3.21875 3.515625 -5.03125 C 2.566406 -6.84375 2.09375 -9.050781 2.09375 -11.65625 C 2.09375 -14.3125 2.59375 -16.546875 3.59375 -18.359375 C 4.59375 -20.179688 5.945312 -21.539062 7.65625 -22.4375 C 9.363281 -23.332031 11.28125 -23.78125 13.40625 -23.78125 C 16.707031 -23.78125 19.234375 -22.90625 20.984375 -21.15625 C 22.742188 -19.40625 23.625 -16.835938 23.625 -13.453125 C 23.625 -12.222656 23.582031 -11.269531 23.5 -10.59375 Z M 18.03125 -14.125 C 17.96875 -15.90625 17.550781 -17.203125 16.78125 -18.015625 C 16.019531 -18.828125 14.894531 -19.234375 13.40625 -19.234375 C 10.445312 -19.234375 8.707031 -17.53125 8.1875 -14.125 Z M 18.03125 -14.125 "/></g></g></g><g fill="#000000" fill-opacity="1"><g transform="translate(245.51948, 52.570722)"><g><path d="M 3.359375 0 L 3.359375 -23.328125 L 9.0625 -23.328125 L 9.0625 -19.859375 L 9.5 -19.78125 C 10.0625 -21.082031 10.800781 -22.035156 11.71875 -22.640625 C 12.632812 -23.242188 13.75 -23.546875 15.0625 -23.546875 C 16.382812 -23.546875 17.394531 -23.320312 18.09375 -22.875 L 17.09375 -17.8125 L 16.65625 -17.734375 C 16.269531 -17.890625 15.898438 -18 15.546875 -18.0625 C 15.191406 -18.132812 14.765625 -18.171875 14.265625 -18.171875 C 12.628906 -18.171875 11.378906 -17.59375 10.515625 -16.4375 C 9.648438 -15.289062 9.21875 -13.453125 9.21875 -10.921875 L 9.21875 0 Z M 3.359375 0 "/></g></g></g><g fill="#000000" fill-opacity="1"><g transform="translate(263.818438, 52.570722)"><g><path d="M 9.09375 0.4375 C 7.601562 0.4375 6.304688 0.164062 5.203125 -0.375 C 4.097656 -0.925781 3.25 -1.734375 2.65625 -2.796875 C 2.070312 -3.867188 1.78125 -5.148438 1.78125 -6.640625 C 1.78125 -8.023438 2.070312 -9.1875 2.65625 -10.125 C 3.25 -11.0625 4.164062 -11.828125 5.40625 -12.421875 C 6.65625 -13.023438 8.28125 -13.488281 10.28125 -13.8125 C 11.675781 -14.039062 12.738281 -14.285156 13.46875 -14.546875 C 14.195312 -14.816406 14.6875 -15.117188 14.9375 -15.453125 C 15.1875 -15.796875 15.3125 -16.226562 15.3125 -16.75 C 15.3125 -17.5 15.050781 -18.070312 14.53125 -18.46875 C 14.007812 -18.863281 13.144531 -19.0625 11.9375 -19.0625 C 10.632812 -19.0625 9.394531 -18.769531 8.21875 -18.1875 C 7.050781 -17.613281 6.039062 -16.851562 5.1875 -15.90625 L 4.765625 -15.90625 L 2.3125 -19.609375 C 3.488281 -20.921875 4.929688 -21.941406 6.640625 -22.671875 C 8.347656 -23.410156 10.210938 -23.78125 12.234375 -23.78125 C 15.316406 -23.78125 17.550781 -23.125 18.9375 -21.8125 C 20.320312 -20.5 21.015625 -18.640625 21.015625 -16.234375 L 21.015625 -6.09375 C 21.015625 -5.050781 21.472656 -4.53125 22.390625 -4.53125 C 22.734375 -4.53125 23.078125 -4.59375 23.421875 -4.71875 L 23.71875 -4.640625 L 24.140625 -0.546875 C 23.816406 -0.335938 23.363281 -0.164062 22.78125 -0.03125 C 22.207031 0.101562 21.570312 0.171875 20.875 0.171875 C 19.476562 0.171875 18.390625 -0.09375 17.609375 -0.625 C 16.828125 -1.164062 16.269531 -2.007812 15.9375 -3.15625 L 15.484375 -3.1875 C 14.335938 -0.769531 12.207031 0.4375 9.09375 0.4375 Z M 10.953125 -3.9375 C 12.304688 -3.9375 13.390625 -4.390625 14.203125 -5.296875 C 15.015625 -6.210938 15.421875 -7.476562 15.421875 -9.09375 L 15.421875 -11.46875 L 15.015625 -11.546875 C 14.660156 -11.265625 14.195312 -11.03125 13.625 -10.84375 C 13.0625 -10.65625 12.242188 -10.46875 11.171875 -10.28125 C 9.898438 -10.070312 8.984375 -9.707031 8.421875 -9.1875 C 7.867188 -8.675781 7.59375 -7.945312 7.59375 -7 C 7.59375 -6 7.890625 -5.238281 8.484375 -4.71875 C 9.078125 -4.195312 9.898438 -3.9375 10.953125 -3.9375 Z M 10.953125 -3.9375 "/></g></g></g><g fill="#000000" fill-opacity="1"><g transform="translate(288.421545, 52.570722)"><g><path d="M 16.09375 -5.5625 L 17.625 -1.234375 C 16.988281 -0.703125 16.191406 -0.289062 15.234375 0 C 14.273438 0.289062 13.1875 0.4375 11.96875 0.4375 C 9.445312 0.4375 7.53125 -0.25 6.21875 -1.625 C 4.90625 -3 4.25 -4.992188 4.25 -7.609375 L 4.25 -18.703125 L 0.703125 -18.703125 L 0.703125 -23.359375 L 4.25 -23.359375 L 4.25 -27.90625 L 10.109375 -28.859375 L 10.109375 -23.359375 L 16.734375 -23.359375 L 16.734375 -18.703125 L 10.109375 -18.703125 L 10.109375 -8.046875 C 10.109375 -6.878906 10.347656 -6.03125 10.828125 -5.5 C 11.304688 -4.976562 12.003906 -4.71875 12.921875 -4.71875 C 13.960938 -4.71875 14.875 -5 15.65625 -5.5625 Z M 16.09375 -5.5625 "/></g></g></g><g fill="#000000" fill-opacity="1"><g transform="translate(306.551277, 52.570722)"><g><path d="M 23.0625 -10.34375 L 8.0625 -10.34375 C 8.226562 -8.3125 8.804688 -6.832031 9.796875 -5.90625 C 10.785156 -4.988281 12.132812 -4.53125 13.84375 -4.53125 C 15.175781 -4.53125 16.257812 -4.78125 17.09375 -5.28125 C 17.925781 -5.78125 18.597656 -6.535156 19.109375 -7.546875 L 19.546875 -7.546875 L 23.4375 -5.0625 C 22.675781 -3.425781 21.523438 -2.097656 19.984375 -1.078125 C 18.453125 -0.0664062 16.40625 0.4375 13.84375 0.4375 C 11.425781 0.4375 9.335938 -0.0195312 7.578125 -0.9375 C 5.828125 -1.851562 4.472656 -3.21875 3.515625 -5.03125 C 2.566406 -6.84375 2.09375 -9.050781 2.09375 -11.65625 C 2.09375 -14.3125 2.59375 -16.546875 3.59375 -18.359375 C 4.59375 -20.179688 5.945312 -21.539062 7.65625 -22.4375 C 9.363281 -23.332031 11.28125 -23.78125 13.40625 -23.78125 C 16.707031 -23.78125 19.234375 -22.90625 20.984375 -21.15625 C 22.742188 -19.40625 23.625 -16.835938 23.625 -13.453125 C 23.625 -12.222656 23.582031 -11.269531 23.5 -10.59375 Z M 18.03125 -14.125 C 17.96875 -15.90625 17.550781 -17.203125 16.78125 -18.015625 C 16.019531 -18.828125 14.894531 -19.234375 13.40625 -19.234375 C 10.445312 -19.234375 8.707031 -17.53125 8.1875 -14.125 Z M 18.03125 -14.125 "/></g></g></g><g fill="#000000" fill-opacity="1"><g transform="translate(331.915958, 52.570722)"><g><path d="M 11.53125 0.4375 C 9.6875 0.4375 8.050781 -0.0078125 6.625 -0.90625 C 5.207031 -1.800781 4.097656 -3.15625 3.296875 -4.96875 C 2.492188 -6.78125 2.09375 -9.007812 2.09375 -11.65625 C 2.09375 -14.320312 2.503906 -16.5625 3.328125 -18.375 C 4.148438 -20.1875 5.289062 -21.539062 6.75 -22.4375 C 8.21875 -23.332031 9.910156 -23.78125 11.828125 -23.78125 C 13.273438 -23.78125 14.53125 -23.53125 15.59375 -23.03125 C 16.664062 -22.53125 17.566406 -21.75 18.296875 -20.6875 L 18.75 -20.796875 L 18.75 -32.703125 L 24.609375 -32.703125 L 24.609375 0 L 18.75 0 L 18.75 -3.03125 L 18.296875 -3.109375 C 17.648438 -2.003906 16.757812 -1.132812 15.625 -0.5 C 14.5 0.125 13.132812 0.4375 11.53125 0.4375 Z M 13.4375 -4.53125 C 15.082031 -4.53125 16.382812 -5.117188 17.34375 -6.296875 C 18.300781 -7.472656 18.78125 -9.257812 18.78125 -11.65625 C 18.78125 -14.050781 18.300781 -15.84375 17.34375 -17.03125 C 16.382812 -18.21875 15.082031 -18.8125 13.4375 -18.8125 C 11.71875 -18.8125 10.398438 -18.234375 9.484375 -17.078125 C 8.578125 -15.929688 8.125 -14.125 8.125 -11.65625 C 8.125 -9.195312 8.578125 -7.394531 9.484375 -6.25 C 10.398438 -5.101562 11.71875 -4.53125 13.4375 -4.53125 Z M 13.4375 -4.53125 "/></g></g></g></svg>