<svg xmlns="http://www.w3.org/2000/svg" xmlns:xlink="http://www.w3.org/1999/xlink" width="1223" zoomAndPan="magnify" viewBox="0 0 917.25 213" height="284" preserveAspectRatio="xMidYMid meet" version="1.0"><defs><g/><clipPath id="cf274dfd2b"><path d="M 0 59.742188 L 92.925781 59.742188 L 92.925781 152.664062 L 0 152.664062 Z M 0 59.742188 " clip-rule="nonzero"/></clipPath></defs><g clip-path="url(#cf274dfd2b)"><path fill="#dc143c" d="M 23.203125 59.742188 C 36.015625 59.742188 46.402344 70.128906 46.402344 82.941406 L 46.402344 59.742188 L 69.605469 59.742188 C 82.417969 59.742188 92.808594 70.128906 92.808594 82.941406 C 92.808594 95.757812 82.417969 106.144531 69.605469 106.144531 C 82.417969 106.144531 92.808594 116.53125 92.808594 129.347656 C 92.808594 135.710938 90.246094 141.472656 86.097656 145.664062 L 86.011719 145.753906 L 85.933594 145.828125 C 81.742188 149.984375 75.972656 152.546875 69.605469 152.546875 C 63.28125 152.546875 57.546875 150.019531 53.363281 145.914062 C 53.308594 145.859375 53.253906 145.804688 53.199219 145.753906 C 53.148438 145.703125 53.097656 145.652344 53.046875 145.597656 C 48.9375 141.414062 46.402344 135.675781 46.402344 129.347656 C 46.402344 142.160156 36.015625 152.546875 23.203125 152.546875 C 10.386719 152.546875 0 142.160156 0 129.347656 L 0 106.144531 L 23.203125 106.144531 C 10.386719 106.144531 0 95.757812 0 82.941406 C 0 70.128906 10.386719 59.742188 23.203125 59.742188 Z M 41.761719 82.941406 C 41.761719 93.195312 33.453125 101.503906 23.203125 101.503906 L 23.203125 64.382812 C 33.453125 64.382812 41.761719 72.691406 41.761719 82.941406 Z M 88.167969 129.347656 C 88.167969 119.09375 79.855469 110.785156 69.605469 110.785156 C 59.355469 110.785156 51.042969 119.09375 51.042969 129.347656 Z M 4.640625 110.785156 L 4.640625 129.347656 C 4.640625 139.597656 12.949219 147.90625 23.203125 147.90625 C 33.453125 147.90625 41.761719 139.597656 41.761719 129.347656 L 41.761719 110.785156 Z M 51.042969 101.503906 L 51.042969 64.382812 L 69.605469 64.382812 C 79.855469 64.382812 88.167969 72.691406 88.167969 82.941406 C 88.167969 93.195312 79.855469 101.503906 69.605469 101.503906 Z M 51.042969 101.503906 " fill-opacity="1" fill-rule="evenodd"/></g><g fill="#000000" fill-opacity="1"><g transform="translate(97.970584, 144.368295)"><g><path d="M 38.75 1.875 C 27.25 1.875 18.40625 -1.144531 12.21875 -7.1875 C 6.039062 -13.238281 2.953125 -22.015625 2.953125 -33.515625 L 2.953125 -39.53125 C 2.953125 -51.164062 6.023438 -59.988281 12.171875 -66 C 18.316406 -72.019531 27.175781 -75.03125 38.75 -75.03125 C 50.25 -75.03125 59.019531 -72.332031 65.0625 -66.9375 C 71.113281 -61.550781 74.207031 -54.125 74.34375 -44.65625 L 74.34375 -42.796875 L 49.296875 -42.796875 L 49.296875 -44.46875 C 49.097656 -47.882812 48.144531 -50.546875 46.4375 -52.453125 C 44.726562 -54.359375 42.226562 -55.3125 38.9375 -55.3125 C 35.59375 -55.3125 33.015625 -54.160156 31.203125 -51.859375 C 29.398438 -49.554688 28.5 -46.070312 28.5 -41.40625 L 28.5 -31.84375 C 28.5 -27.175781 29.398438 -23.675781 31.203125 -21.34375 C 33.015625 -19.007812 35.59375 -17.84375 38.9375 -17.84375 C 42.03125 -17.84375 44.492188 -18.679688 46.328125 -20.359375 C 48.171875 -22.035156 49.160156 -24.679688 49.296875 -28.296875 L 49.296875 -30.171875 L 74.34375 -30.171875 L 74.34375 -28.390625 C 74.144531 -18.992188 71.070312 -11.597656 65.125 -6.203125 C 59.175781 -0.816406 50.382812 1.875 38.75 1.875 Z M 38.75 1.875 "/></g></g></g><g fill="#000000" fill-opacity="1"><g transform="translate(174.862692, 144.368295)"><g><path d="M 34.5 1.875 C 24.050781 1.875 16.128906 -0.734375 10.734375 -5.953125 C 5.347656 -11.179688 2.65625 -18.460938 2.65625 -27.796875 L 2.65625 -30.859375 C 2.65625 -40.253906 5.347656 -47.53125 10.734375 -52.6875 C 16.128906 -57.851562 24.050781 -60.4375 34.5 -60.4375 C 45.019531 -60.4375 52.972656 -57.835938 58.359375 -52.640625 C 63.753906 -47.453125 66.453125 -40.191406 66.453125 -30.859375 L 66.453125 -27.796875 C 66.453125 -18.398438 63.753906 -11.101562 58.359375 -5.90625 C 52.972656 -0.71875 45.019531 1.875 34.5 1.875 Z M 25.9375 -26.21875 C 25.9375 -18.925781 28.789062 -15.28125 34.5 -15.28125 C 40.289062 -15.28125 43.1875 -18.925781 43.1875 -26.21875 L 43.1875 -32.4375 C 43.1875 -39.726562 40.289062 -43.375 34.5 -43.375 C 28.789062 -43.375 25.9375 -39.726562 25.9375 -32.4375 Z M 25.9375 -26.21875 "/></g></g></g><g fill="#000000" fill-opacity="1"><g transform="translate(243.86843, 144.368295)"><g><path d="M 4.828125 0 L 4.828125 -58.5625 L 28.09375 -58.5625 L 28.09375 -54.515625 L 27.609375 -48.40625 C 29.441406 -52.414062 31.984375 -55.421875 35.234375 -57.421875 C 38.492188 -59.429688 42.257812 -60.4375 46.53125 -60.4375 C 52.976562 -60.4375 58.085938 -58.5625 61.859375 -54.8125 C 65.640625 -51.070312 67.53125 -44.894531 67.53125 -36.28125 L 67.53125 0 L 44.265625 0 L 44.265625 -33.71875 C 44.265625 -39.894531 41.800781 -42.984375 36.875 -42.984375 C 33.851562 -42.984375 31.632812 -41.878906 30.21875 -39.671875 C 28.800781 -37.472656 28.09375 -34.832031 28.09375 -31.75 L 28.09375 0 Z M 4.828125 0 "/></g></g></g><g fill="#000000" fill-opacity="1"><g transform="translate(315.831547, 144.368295)"><g><path d="M 30.953125 1.875 C 25.367188 1.875 20.914062 0.957031 17.59375 -0.875 C 14.28125 -2.71875 11.898438 -5.378906 10.453125 -8.859375 C 9.003906 -12.347656 8.28125 -16.523438 8.28125 -21.390625 L 8.28125 -41.609375 L 0.984375 -41.609375 L 0.984375 -58.5625 L 8.28125 -58.5625 L 8.28125 -71.375 L 31.546875 -71.375 L 31.546875 -58.5625 L 44.765625 -58.5625 L 44.765625 -41.609375 L 31.546875 -41.609375 L 31.546875 -24.75 C 31.546875 -21.851562 32.019531 -19.695312 32.96875 -18.28125 C 33.925781 -16.875 35.722656 -16.171875 38.359375 -16.171875 C 39.671875 -16.171875 40.867188 -16.234375 41.953125 -16.359375 C 43.035156 -16.492188 44.363281 -16.691406 45.9375 -16.953125 L 45.9375 -0.203125 C 43.707031 0.390625 41.273438 0.882812 38.640625 1.28125 C 36.015625 1.675781 33.453125 1.875 30.953125 1.875 Z M 30.953125 1.875 "/></g></g></g><g fill="#000000" fill-opacity="1"><g transform="translate(362.656859, 144.368295)"><g><path d="M 33.625 1.875 C 23.5625 1.875 15.882812 -0.769531 10.59375 -6.0625 C 5.300781 -11.351562 2.65625 -18.664062 2.65625 -28 L 2.65625 -31.0625 C 2.65625 -40.320312 5.316406 -47.53125 10.640625 -52.6875 C 15.972656 -57.851562 23.695312 -60.4375 33.8125 -60.4375 C 43.675781 -60.4375 51.234375 -58.019531 56.484375 -53.1875 C 61.742188 -48.351562 64.375 -41.238281 64.375 -31.84375 L 64.375 -24.84375 L 25.734375 -24.84375 C 25.867188 -21.226562 26.609375 -18.566406 27.953125 -16.859375 C 29.296875 -15.148438 31.285156 -14.296875 33.921875 -14.296875 C 36.546875 -14.296875 38.484375 -14.882812 39.734375 -16.0625 C 40.984375 -17.25 41.738281 -18.894531 42 -21 L 64.1875 -21 C 63.851562 -16.59375 62.535156 -12.664062 60.234375 -9.21875 C 57.941406 -5.769531 54.59375 -3.054688 50.1875 -1.078125 C 45.78125 0.890625 40.257812 1.875 33.625 1.875 Z M 25.734375 -35 L 42.203125 -35 C 42.128906 -37.957031 41.453125 -40.273438 40.171875 -41.953125 C 38.890625 -43.628906 36.804688 -44.46875 33.921875 -44.46875 C 31.285156 -44.46875 29.3125 -43.710938 28 -42.203125 C 26.6875 -40.691406 25.929688 -38.289062 25.734375 -35 Z M 25.734375 -35 "/></g></g></g><g fill="#000000" fill-opacity="1"><g transform="translate(429.888154, 144.368295)"><g><path d="M 4.828125 0 L 4.828125 -58.5625 L 28.09375 -58.5625 L 28.09375 -54.515625 L 27.609375 -48.40625 C 29.441406 -52.414062 31.984375 -55.421875 35.234375 -57.421875 C 38.492188 -59.429688 42.257812 -60.4375 46.53125 -60.4375 C 52.976562 -60.4375 58.085938 -58.5625 61.859375 -54.8125 C 65.640625 -51.070312 67.53125 -44.894531 67.53125 -36.28125 L 67.53125 0 L 44.265625 0 L 44.265625 -33.71875 C 44.265625 -39.894531 41.800781 -42.984375 36.875 -42.984375 C 33.851562 -42.984375 31.632812 -41.878906 30.21875 -39.671875 C 28.800781 -37.472656 28.09375 -34.832031 28.09375 -31.75 L 28.09375 0 Z M 4.828125 0 "/></g></g></g><g fill="#000000" fill-opacity="1"><g transform="translate(501.851283, 144.368295)"><g><path d="M 30.953125 1.875 C 25.367188 1.875 20.914062 0.957031 17.59375 -0.875 C 14.28125 -2.71875 11.898438 -5.378906 10.453125 -8.859375 C 9.003906 -12.347656 8.28125 -16.523438 8.28125 -21.390625 L 8.28125 -41.609375 L 0.984375 -41.609375 L 0.984375 -58.5625 L 8.28125 -58.5625 L 8.28125 -71.375 L 31.546875 -71.375 L 31.546875 -58.5625 L 44.765625 -58.5625 L 44.765625 -41.609375 L 31.546875 -41.609375 L 31.546875 -24.75 C 31.546875 -21.851562 32.019531 -19.695312 32.96875 -18.28125 C 33.925781 -16.875 35.722656 -16.171875 38.359375 -16.171875 C 39.671875 -16.171875 40.867188 -16.234375 41.953125 -16.359375 C 43.035156 -16.492188 44.363281 -16.691406 45.9375 -16.953125 L 45.9375 -0.203125 C 43.707031 0.390625 41.273438 0.882812 38.640625 1.28125 C 36.015625 1.675781 33.453125 1.875 30.953125 1.875 Z M 30.953125 1.875 "/></g></g></g><g fill="#dc143c" fill-opacity="1"><g transform="translate(548.680162, 144.368295)"><g><path d="M 5.515625 0 L 5.515625 -73.359375 L 61.234375 -73.359375 L 61.234375 -55.109375 L 30.859375 -55.109375 L 30.859375 -43.484375 L 57.78125 -43.484375 L 57.78125 -25.734375 L 30.859375 -25.734375 L 30.859375 0 Z M 5.515625 0 "/></g></g></g><g fill="#dc143c" fill-opacity="1"><g transform="translate(611.376804, 144.368295)"><g><path d="M 34.5 1.875 C 24.050781 1.875 16.128906 -0.734375 10.734375 -5.953125 C 5.347656 -11.179688 2.65625 -18.460938 2.65625 -27.796875 L 2.65625 -30.859375 C 2.65625 -40.253906 5.347656 -47.53125 10.734375 -52.6875 C 16.128906 -57.851562 24.050781 -60.4375 34.5 -60.4375 C 45.019531 -60.4375 52.972656 -57.835938 58.359375 -52.640625 C 63.753906 -47.453125 66.453125 -40.191406 66.453125 -30.859375 L 66.453125 -27.796875 C 66.453125 -18.398438 63.753906 -11.101562 58.359375 -5.90625 C 52.972656 -0.71875 45.019531 1.875 34.5 1.875 Z M 25.9375 -26.21875 C 25.9375 -18.925781 28.789062 -15.28125 34.5 -15.28125 C 40.289062 -15.28125 43.1875 -18.925781 43.1875 -26.21875 L 43.1875 -32.4375 C 43.1875 -39.726562 40.289062 -43.375 34.5 -43.375 C 28.789062 -43.375 25.9375 -39.726562 25.9375 -32.4375 Z M 25.9375 -26.21875 "/></g></g></g><g fill="#dc143c" fill-opacity="1"><g transform="translate(680.382542, 144.368295)"><g><path d="M 4.828125 0 L 4.828125 -58.5625 L 28.09375 -58.5625 L 28.09375 -54.515625 L 27.40625 -48.3125 L 27.5 -48.3125 C 28.945312 -52.125 31.097656 -55.097656 33.953125 -57.234375 C 36.816406 -59.367188 40.15625 -60.4375 43.96875 -60.4375 C 46.269531 -60.4375 48.304688 -60.175781 50.078125 -59.65625 L 50.078125 -40.625 C 48.898438 -40.882812 47.71875 -41.0625 46.53125 -41.15625 C 45.351562 -41.257812 44.140625 -41.3125 42.890625 -41.3125 C 38.222656 -41.3125 34.585938 -39.992188 31.984375 -37.359375 C 29.390625 -34.734375 28.09375 -30.789062 28.09375 -25.53125 L 28.09375 0 Z M 4.828125 0 "/></g></g></g><g fill="#dc143c" fill-opacity="1"><g transform="translate(731.545361, 144.368295)"><g><path d="M 32.046875 19.421875 C 27.441406 19.421875 23.234375 19.15625 19.421875 18.625 C 15.609375 18.101562 12.0625 17.382812 8.78125 16.46875 L 9.65625 1.28125 C 12.15625 2.070312 15.160156 2.679688 18.671875 3.109375 C 22.191406 3.535156 25.367188 3.75 28.203125 3.75 C 33.128906 3.75 36.789062 2.859375 39.1875 1.078125 C 41.59375 -0.691406 42.859375 -3.21875 42.984375 -6.5 L 42.984375 -6.703125 L 43.28125 -12.8125 L 42.984375 -12.8125 C 41.210938 -9.394531 38.75 -6.796875 35.59375 -5.015625 C 32.4375 -3.242188 28.851562 -2.359375 24.84375 -2.359375 C 17.476562 -2.359375 11.9375 -4.820312 8.21875 -9.75 C 4.507812 -14.6875 2.65625 -21.691406 2.65625 -30.765625 L 2.65625 -32.140625 C 2.65625 -51.003906 10.019531 -60.4375 24.75 -60.4375 C 28.6875 -60.4375 32.296875 -59.515625 35.578125 -57.671875 C 38.867188 -55.835938 41.367188 -52.976562 43.078125 -49.09375 L 43.375 -49.09375 L 42.796875 -54.921875 L 42.796875 -58.5625 L 66.0625 -58.5625 L 66.0625 -10.84375 C 66.0625 -0.519531 63.25 7.101562 57.625 12.03125 C 52.007812 16.957031 43.484375 19.421875 32.046875 19.421875 Z M 26.03125 -28.09375 C 26.03125 -25.46875 26.601562 -23.21875 27.75 -21.34375 C 28.90625 -19.46875 31.0625 -18.53125 34.21875 -18.53125 C 37.300781 -18.53125 39.515625 -19.484375 40.859375 -21.390625 C 42.210938 -23.296875 42.890625 -25.566406 42.890625 -28.203125 L 42.890625 -33.328125 C 42.890625 -35.828125 42.226562 -38.125 40.90625 -40.21875 C 39.59375 -42.320312 37.363281 -43.375 34.21875 -43.375 C 32.175781 -43.375 30.546875 -42.878906 29.328125 -41.890625 C 28.109375 -40.910156 27.253906 -39.648438 26.765625 -38.109375 C 26.273438 -36.566406 26.03125 -34.90625 26.03125 -33.125 Z M 26.03125 -28.09375 "/></g></g></g><g fill="#dc143c" fill-opacity="1"><g transform="translate(802.424121, 144.368295)"><g><path d="M 33.625 1.875 C 23.5625 1.875 15.882812 -0.769531 10.59375 -6.0625 C 5.300781 -11.351562 2.65625 -18.664062 2.65625 -28 L 2.65625 -31.0625 C 2.65625 -40.320312 5.316406 -47.53125 10.640625 -52.6875 C 15.972656 -57.851562 23.695312 -60.4375 33.8125 -60.4375 C 43.675781 -60.4375 51.234375 -58.019531 56.484375 -53.1875 C 61.742188 -48.351562 64.375 -41.238281 64.375 -31.84375 L 64.375 -24.84375 L 25.734375 -24.84375 C 25.867188 -21.226562 26.609375 -18.566406 27.953125 -16.859375 C 29.296875 -15.148438 31.285156 -14.296875 33.921875 -14.296875 C 36.546875 -14.296875 38.484375 -14.882812 39.734375 -16.0625 C 40.984375 -17.25 41.738281 -18.894531 42 -21 L 64.1875 -21 C 63.851562 -16.59375 62.535156 -12.664062 60.234375 -9.21875 C 57.941406 -5.769531 54.59375 -3.054688 50.1875 -1.078125 C 45.78125 0.890625 40.257812 1.875 33.625 1.875 Z M 25.734375 -35 L 42.203125 -35 C 42.128906 -37.957031 41.453125 -40.273438 40.171875 -41.953125 C 38.890625 -43.628906 36.804688 -44.46875 33.921875 -44.46875 C 31.285156 -44.46875 29.3125 -43.710938 28 -42.203125 C 26.6875 -40.691406 25.929688 -38.289062 25.734375 -35 Z M 25.734375 -35 "/></g></g></g></svg>